<mxfile host="app.diagrams.net" modified="2024-05-16T13:54:38.852Z" agent="Mozilla/5.0 (Macintosh; Intel Mac OS X 10_15_7) AppleWebKit/537.36 (KHTML, like Gecko) Chrome/124.0.0.0 Safari/537.36" version="24.4.0" etag="LkQhBmOyXqKX-ux3lDam" type="github">
  <diagram name="第 1 页" id="RSeajUX0f1X6RoDCctwT">
    <mxGraphModel>
      <root>
        <mxCell id="0" />
        <mxCell id="1" parent="0" />
      </root>
    </mxGraphModel>
  </diagram>
</mxfile>
